<svg width="32" height="32" viewBox="0 0 32 32" fill="none" xmlns="http://www.w3.org/2000/svg">
<g id="Group">
<g id="Group_2">
<path id="Union" fill-rule="evenodd" clip-rule="evenodd" d="M21.6481 8.74002C21.3411 8.46188 20.8668 8.48523 20.5887 8.79217L16.7958 12.9779L13.7669 8.85195C13.6256 8.65948 13.4011 8.54578 13.1623 8.54578H8.99433C8.71181 8.54578 8.45326 8.70455 8.32546 8.95651C8.19765 9.20848 8.22229 9.51089 8.38919 9.73884L13.4578 16.6616L8.43856 22.2006C8.16043 22.5075 8.18378 22.9818 8.49072 23.2599C8.79766 23.5381 9.27196 23.5147 9.55009 23.2078L14.3624 17.8971L18.2063 23.1472C18.3475 23.3402 18.5723 23.4542 18.8114 23.4542H23.0056C23.2883 23.4542 23.547 23.2952 23.6747 23.043C23.8025 22.7908 23.7775 22.4882 23.6102 22.2603L17.7018 14.2119L21.7002 9.79939C21.9784 9.49245 21.955 9.01815 21.6481 8.74002ZM10.473 10.0458L19.1918 21.9542H21.5247L12.7825 10.0458H10.473Z" fill="#EDEFF4"/>
</g>
</g>
</svg>
