<svg width="32" height="32" viewBox="0 0 32 32" fill="none" xmlns="http://www.w3.org/2000/svg">
<path d="M10.751 15.5002L10.7507 15.0002L10.7506 15.0002L10.751 15.5002ZM7.00244 19.2538L6.50244 19.254L6.50244 19.254L7.00244 19.2538ZM10.755 23.0033L10.7551 23.5033L10.7551 23.5033L10.755 23.0033ZM14.5056 19.2518L15.0056 19.2518L15.0056 19.2516L14.5056 19.2518ZM13.4054 16.5982L13.7588 16.2445L13.7588 16.2445L13.4054 16.5982ZM17.5008 19.2538L17.0008 19.254L17.0008 19.254L17.5008 19.2538ZM21.2534 23.0033L21.2535 23.5033L21.2535 23.5033L21.2534 23.0033ZM25.0039 19.2518L25.5039 19.2518L25.5039 19.2516L25.0039 19.2518ZM23.9038 16.5982L24.2572 16.2445L23.9038 16.5982ZM16.0002 6.42041L15.9999 5.92041L15.9998 5.92041L16.0002 6.42041ZM12.2516 10.174L11.7516 10.1742L11.7516 10.1742L12.2516 10.174ZM16.0042 13.9235L16.0043 14.4235L16.0043 14.4235L16.0042 13.9235ZM19.7548 10.172L20.2548 10.172L20.2548 10.1718L19.7548 10.172ZM18.6546 7.51845L18.3012 7.87214L18.3012 7.87214L18.6546 7.51845ZM10.7506 15.0002C8.40297 15.0021 6.50119 16.9064 6.50244 19.254L7.50244 19.2535C7.50148 17.458 8.95595 16.0016 10.7514 16.0002L10.7506 15.0002ZM6.50244 19.254C6.50369 21.6017 8.40751 23.5039 10.7551 23.5033L10.7549 22.5033C8.95942 22.5038 7.5034 21.0489 7.50244 19.2535L6.50244 19.254ZM10.7551 23.5033C13.1028 23.5027 15.0056 21.5994 15.0056 19.2518H14.0056C14.0056 21.0472 12.5503 22.5028 10.7549 22.5033L10.7551 23.5033ZM15.0056 19.2516C15.0053 18.1236 14.5568 17.0419 13.7588 16.2445L13.052 16.9519C13.6623 17.5618 14.0053 18.3891 14.0056 19.2519L15.0056 19.2516ZM13.7588 16.2445C12.9608 15.4472 11.8788 14.9996 10.7507 15.0002L10.7513 16.0002C11.6141 15.9997 12.4417 16.3421 13.052 16.9519L13.7588 16.2445ZM21.249 15.0002C18.9013 15.0021 16.9996 16.9064 17.0008 19.254L18.0008 19.2535C17.9999 17.458 19.4543 16.0016 21.2498 16.0002L21.249 15.0002ZM17.0008 19.254C17.0021 21.6017 18.9059 23.5039 21.2535 23.5033L21.2532 22.5033C19.4578 22.5038 18.0018 21.0489 18.0008 19.2535L17.0008 19.254ZM21.2535 23.5033C23.6011 23.5027 25.5039 21.5994 25.5039 19.2518H24.5039C24.5039 21.0472 23.0487 22.5028 21.2532 22.5033L21.2535 23.5033ZM25.5039 19.2516C25.5036 18.1236 25.0552 17.0419 24.2572 16.2445L23.5504 16.9519C24.1607 17.5618 24.5037 18.3891 24.5039 19.2519L25.5039 19.2516ZM24.2572 16.2445C23.4592 15.4472 22.3772 14.9996 21.2491 15.0002L21.2496 16.0002C22.1124 15.9997 22.94 16.3421 23.5504 16.9519L24.2572 16.2445ZM15.9998 5.92041C13.6522 5.92229 11.7504 7.82661 11.7516 10.1742L12.7516 10.1737C12.7507 8.37826 14.2051 6.92185 16.0006 6.92041L15.9998 5.92041ZM11.7516 10.1742C11.7529 12.5219 13.6567 14.4242 16.0043 14.4235L16.0041 13.4235C14.2086 13.424 12.7526 11.9692 12.7516 10.1737L11.7516 10.1742ZM16.0043 14.4235C18.352 14.4229 20.2548 12.5196 20.2548 10.172H19.2548C19.2548 11.9674 17.7995 13.4231 16.0041 13.4235L16.0043 14.4235ZM20.2548 10.1718C20.2545 9.04379 19.806 7.96209 19.008 7.16476L18.3012 7.87214C18.9115 8.48198 19.2545 9.30932 19.2548 10.1721L20.2548 10.1718ZM19.008 7.16476C18.21 6.36743 17.128 5.91981 15.9999 5.92041L16.0005 6.92041C16.8632 6.91995 17.6909 7.26231 18.3012 7.87214L19.008 7.16476Z" fill="#FAFBFC"/>
<circle cx="16" cy="16" r="15" stroke="#FAFBFC" stroke-width="1.5" stroke-linecap="round" stroke-linejoin="round"/>
</svg>
