<svg width="19" height="20" viewBox="0 0 19 20" fill="none" xmlns="http://www.w3.org/2000/svg">
<ellipse opacity="0.1" cx="9.65299" cy="10.3333" rx="8.88419" ry="9.39394" fill="#9664FF"/>
<path fill-rule="evenodd" clip-rule="evenodd" d="M9.4571 7.38901C9.4937 7.24465 9.58303 7.12158 9.70544 7.04685C9.82785 6.97212 9.97331 6.95186 10.1098 6.99052L13.0225 7.81574C13.159 7.85445 13.2754 7.9489 13.3461 8.07833C13.4168 8.20777 13.4359 8.36158 13.3994 8.50595L12.6189 11.5857C12.5804 11.7278 12.4907 11.8482 12.369 11.9209C12.2474 11.9937 12.1036 12.0131 11.9685 11.9748C11.8335 11.9366 11.7181 11.8438 11.6472 11.7164C11.5763 11.5891 11.5555 11.4374 11.5893 11.294L12.0367 9.52852L6.68817 12.7937C6.56574 12.8684 6.42024 12.8887 6.28369 12.85C6.14713 12.8113 6.0307 12.7168 5.96001 12.5874C5.88933 12.4579 5.87017 12.3041 5.90676 12.1597C5.94335 12.0153 6.03269 11.8922 6.15512 11.8174L11.5036 8.55228L9.83396 8.07922C9.69744 8.04051 9.58104 7.94606 9.51037 7.81663C9.4397 7.68719 9.42053 7.53338 9.4571 7.38901Z" fill="#99EDF9"/>
</svg>
