<svg width="18" height="20" viewBox="0 0 18 20" fill="none" xmlns="http://www.w3.org/2000/svg">
<ellipse opacity="0.1" cx="8.97403" cy="10.3334" rx="8.88419" ry="9.39394" fill="#F82E2E"/>
<path fill-rule="evenodd" clip-rule="evenodd" d="M11.7864 9.4498C11.9353 9.45144 12.076 9.50933 12.1774 9.61074C12.2788 9.71215 12.3327 9.84878 12.3272 9.99058L12.2098 13.0156C12.2043 13.1574 12.1399 13.2927 12.0307 13.3919C11.9215 13.491 11.7765 13.5458 11.6276 13.5442L8.45063 13.5096C8.30349 13.5056 8.16538 13.4466 8.06604 13.3455C7.96671 13.2444 7.91409 13.1092 7.91953 12.9689C7.92497 12.8287 7.98803 12.6947 8.09513 12.5959C8.20223 12.497 8.34479 12.4411 8.49212 12.4403L10.3133 12.4601L5.88228 8.02906C5.78085 7.92763 5.72696 7.79097 5.73246 7.64914C5.73796 7.50732 5.80241 7.37194 5.91162 7.2728C6.02083 7.17366 6.16586 7.11888 6.31481 7.1205C6.46376 7.12212 6.60442 7.18001 6.70585 7.28144L11.1369 11.7125L11.2041 9.97836C11.2097 9.83657 11.2741 9.70123 11.3833 9.60211C11.4925 9.50299 11.6375 9.4482 11.7864 9.4498Z" fill="#F82E2E"/>
</svg>
