<svg width="53" height="52" viewBox="0 0 53 52" fill="none" xmlns="http://www.w3.org/2000/svg">
<g id="help">
<path id="Combined Shape" fill-rule="evenodd" clip-rule="evenodd" d="M26.4999 7.58325C36.6712 7.58325 44.9166 15.8287 44.9166 25.9999C44.9166 36.1712 36.6712 44.4166 26.4999 44.4166C16.3287 44.4166 8.08325 36.1712 8.08325 25.9999C8.08325 15.8287 16.3287 7.58325 26.4999 7.58325ZM31.9724 20.9367C32.5887 20.3203 33.588 20.3203 34.2043 20.9367C34.8207 21.553 34.8207 22.5523 34.2043 23.1686L25.2765 32.0965C24.9559 32.4171 24.5317 32.5709 24.1116 32.558C23.6916 32.5709 23.2674 32.4171 22.9468 32.0965L18.7537 27.9034C18.1373 27.287 18.1373 26.2877 18.7537 25.6714C19.37 25.055 20.3693 25.055 20.9856 25.6714L24.1116 28.7974L31.9724 20.9367Z" fill="#C292EB"/>
</g>
</svg>
