<svg width="7" height="3" viewBox="0 0 7 3" fill="none" xmlns="http://www.w3.org/2000/svg">
<path id="Vector" d="M3.52622 2.86326L6.00794 0.664886C6.30081 0.40623 6.06279 1.47456e-07 5.61829 1.47456e-07H0.654862C0.555384 -6.5951e-05 0.45799 0.0220912 0.374343 0.0638182C0.290697 0.105545 0.224343 0.165073 0.183228 0.235274C0.142113 0.305474 0.12798 0.383372 0.142521 0.459637C0.157063 0.535902 0.199662 0.607302 0.265218 0.665287L2.74693 2.86286C2.7955 2.90593 2.8554 2.94046 2.9226 2.96411C2.98981 2.98776 3.06277 3 3.13658 3C3.21039 3 3.28334 2.98776 3.35055 2.96411C3.41775 2.94046 3.47765 2.90593 3.52622 2.86286V2.86326Z" fill="#FAFBFC"/>
</svg>
