<svg width="18" height="18" viewBox="0 0 18 18" fill="none" xmlns="http://www.w3.org/2000/svg">
<g id="clipboard 1">
<path id="Vector" d="M11.3735 2.84344H12.7952C13.1723 2.84344 13.5339 2.99323 13.8005 3.25985C14.0671 3.52647 14.2169 3.88809 14.2169 4.26515V14.2171C14.2169 14.5942 14.0671 14.9558 13.8005 15.2224C13.5339 15.489 13.1723 15.6388 12.7952 15.6388H4.26497C3.88791 15.6388 3.52629 15.489 3.25967 15.2224C2.99305 14.9558 2.84326 14.5942 2.84326 14.2171V4.26515C2.84326 3.88809 2.99305 3.52647 3.25967 3.25985C3.52629 2.99323 3.88791 2.84344 4.26497 2.84344H5.68668" stroke="#FAFBFC" stroke-linecap="round" stroke-linejoin="round"/>
<path id="Vector_2" d="M10.6635 1.42157H6.39835C6.00576 1.42157 5.6875 1.73983 5.6875 2.13242V3.55413C5.6875 3.94672 6.00576 4.26498 6.39835 4.26498H10.6635C11.0561 4.26498 11.3743 3.94672 11.3743 3.55413V2.13242C11.3743 1.73983 11.0561 1.42157 10.6635 1.42157Z" stroke="#FAFBFC" stroke-linecap="round" stroke-linejoin="round"/>
</g>
</svg>
