<svg width="16" height="16" viewBox="0 0 16 16" fill="none" xmlns="http://www.w3.org/2000/svg">
<g id="vuesax/outline/import">
<g id="import">
<path id="Vector" d="M7.85989 9.40677C7.74057 9.40677 7.62124 9.36281 7.52704 9.26861L5.91931 7.66088C5.73718 7.47875 5.73718 7.1773 5.91931 6.99518C6.10143 6.81305 6.40288 6.81305 6.58501 6.99518L7.85989 8.27006L9.13477 6.99518C9.31689 6.81305 9.61834 6.81305 9.80047 6.99518C9.98259 7.1773 9.98259 7.47875 9.80047 7.66088L8.19274 9.26861C8.09854 9.36281 7.97921 9.40677 7.85989 9.40677Z" fill="white"/>
<path id="Vector_2" d="M7.85969 9.3628C7.6022 9.3628 7.38867 9.14927 7.38867 8.89178V2.50483C7.38867 2.24734 7.6022 2.03381 7.85969 2.03381C8.11717 2.03381 8.3307 2.24734 8.3307 2.50483V8.89178C8.3307 9.14927 8.11717 9.3628 7.85969 9.3628Z" fill="white"/>
<path id="Vector_3" d="M7.93511 13.1372C4.70081 13.1372 2.43994 10.8763 2.43994 7.64204C2.43994 7.38455 2.65347 7.17102 2.91096 7.17102C3.16844 7.17102 3.38197 7.38455 3.38197 7.64204C3.38197 10.3237 5.25347 12.1952 7.93511 12.1952C10.6168 12.1952 12.4883 10.3237 12.4883 7.64204C12.4883 7.38455 12.7018 7.17102 12.9593 7.17102C13.2168 7.17102 13.4303 7.38455 13.4303 7.64204C13.4303 10.8763 11.1694 13.1372 7.93511 13.1372Z" fill="white"/>
</g>
</g>
</svg>
