<svg width="52" height="52" viewBox="0 0 52 52" fill="none" xmlns="http://www.w3.org/2000/svg">
<g id="help">
<circle id="Oval" cx="26" cy="26" r="12" fill="#FAFBFC"/>
<path id="Combined Shape" fill-rule="evenodd" clip-rule="evenodd" d="M25.9999 7.58325C36.1712 7.58325 44.4166 15.8287 44.4166 25.9999C44.4166 36.1712 36.1712 44.4166 25.9999 44.4166C15.8287 44.4166 7.58325 36.1712 7.58325 25.9999C7.58325 15.8287 15.8287 7.58325 25.9999 7.58325ZM18.5999 32.1999V26.3999C18.5999 25.9581 18.2417 25.5999 17.7999 25.5999C17.3581 25.5999 16.9999 25.9581 16.9999 26.3999V32.9999C16.9999 33.4417 17.3581 33.7999 17.7999 33.7999C17.8024 33.7999 17.8048 33.7999 17.8072 33.7999C17.81 33.7999 17.8128 33.7999 17.8155 33.7999L34.2155 33.7999L34.2199 33.7999L34.2218 33.7999C34.6636 33.7999 35.0218 33.4417 35.0218 32.9999L35.0218 26.3999C35.0218 25.9581 34.6636 25.5999 34.2218 25.5999C33.78 25.5999 33.4218 25.9581 33.4218 26.3999L33.4218 32.1999L18.5999 32.1999ZM33.4218 19.7999L18.5999 19.7999V22.5759L25.9927 26.335L33.4218 22.2559V19.7999ZM17.8155 18.1999C17.6233 18.1999 17.4469 18.2677 17.309 18.3807C17.1209 18.5271 16.9999 18.7556 16.9999 19.0124V23.0793C16.9999 23.4431 17.2428 23.7502 17.5753 23.8473L25.6287 27.9423C25.7571 28.0076 25.8953 28.035 26.0301 28.0282C26.1598 28.0279 26.2911 27.9961 26.4126 27.9294L34.5799 23.4449C34.6697 23.3957 34.7462 23.3318 34.8081 23.2578C34.9407 23.1151 35.0218 22.9238 35.0218 22.7136V19.0124C35.0218 18.8813 34.9903 18.7576 34.9344 18.6484C34.8043 18.3828 34.5313 18.1999 34.2155 18.1999L17.8155 18.1999Z" fill="#607BCC"/>
</g>
</svg>
