<svg width="21" height="22" viewBox="0 0 21 22" fill="none" xmlns="http://www.w3.org/2000/svg">
<g id="Group">
<path id="Path" d="M17.5 8.375V4.875C17.5 3.9085 16.7165 3.125 15.75 3.125H4.375C3.4085 3.125 2.625 3.9085 2.625 4.875V17.125C2.625 18.0915 3.4085 18.875 4.375 18.875H8.75" stroke="#FAFBFC" stroke-linecap="round" stroke-linejoin="round"/>
<path id="Path_2" d="M6.125 7.5H14" stroke="#FAFBFC" stroke-linecap="round" stroke-linejoin="round"/>
<path id="Path_3" d="M6.125 11H10.5" stroke="#FAFBFC" stroke-linecap="round" stroke-linejoin="round"/>
<path id="Path_4" d="M6.125 14.5H8.75" stroke="#FAFBFC" stroke-linecap="round" stroke-linejoin="round"/>
<path id="Path_5" d="M13.125 13.625V16.25C13.125 17.6997 14.3003 18.875 15.75 18.875V18.875C17.1997 18.875 18.375 17.6997 18.375 16.25V13.1875C18.375 12.4626 17.7874 11.875 17.0625 11.875V11.875C16.3376 11.875 15.75 12.4626 15.75 13.1875V16.25" stroke="#FAFBFC" stroke-linecap="round" stroke-linejoin="round"/>
</g>
</svg>
