<svg width="22" height="20" viewBox="0 0 22 20" fill="none" xmlns="http://www.w3.org/2000/svg">
<g id="Group">
<path id="Vector" d="M9.25562 16.0593C9.97653 16.5487 10.166 17.5275 9.67659 18.2537C9.18721 18.9746 8.20846 19.164 7.48229 18.6746C6.76137 18.1852 6.57194 17.2065 7.06131 16.4803C7.55069 15.7594 8.53471 15.57 9.25562 16.0593Z" stroke="#C0C5D2" stroke-miterlimit="10" stroke-linecap="round" stroke-linejoin="round"/>
<path id="Vector_2" d="M12.9391 1.32538C13.66 1.81476 13.8494 2.79352 13.3601 3.51969C12.8707 4.2406 11.8919 4.43004 11.1658 3.94066C10.4448 3.45128 10.2554 2.47253 10.7448 1.74635C11.2342 1.02544 12.2182 0.836004 12.9391 1.32538Z" stroke="#C0C5D2" stroke-miterlimit="10" stroke-linecap="round" stroke-linejoin="round"/>
<path id="Vector_3" d="M12.3603 7.33999C13.6863 8.23455 14.0284 10.0342 13.1338 11.3603C12.2392 12.6863 10.4396 13.0283 9.11353 12.1338C7.78747 11.2392 7.44543 9.43958 8.34 8.11352C9.23982 6.78746 11.0395 6.44016 12.3603 7.33999Z" stroke="#C0C5D2" stroke-miterlimit="10" stroke-linecap="round" stroke-linejoin="round"/>
<path id="Vector_4" d="M19.9588 7.24527C21.0428 7.97671 21.3269 9.4501 20.5902 10.5341C19.8588 11.6181 18.3854 11.9023 17.3014 11.1656C16.2174 10.4341 15.9333 8.96073 16.67 7.87673C17.4067 6.79799 18.8748 6.51383 19.9588 7.24527Z" stroke="#C0C5D2" stroke-miterlimit="10" stroke-linecap="round" stroke-linejoin="round"/>
<path id="Vector_5" d="M6.27722 2.50935C7.36121 3.24079 7.64537 4.71419 6.90867 5.79818C6.17723 6.88218 4.70384 7.16634 3.61984 6.42964C2.53584 5.69821 2.25169 4.22481 2.98839 3.14081C3.72508 2.06208 5.19322 1.77792 6.27722 2.50935Z" stroke="#C0C5D2" stroke-miterlimit="10" stroke-linecap="round" stroke-linejoin="round"/>
<path id="Vector_6" d="M4.6986 10.4026C5.7826 11.134 6.06675 12.6074 5.33006 13.6914C4.59862 14.7754 3.12522 15.0595 2.04123 14.3228C0.957227 13.5914 0.673074 12.118 1.40977 11.034C2.14647 9.95528 3.6146 9.67112 4.6986 10.4026Z" stroke="#C0C5D2" stroke-miterlimit="10" stroke-linecap="round" stroke-linejoin="round"/>
<path id="Vector_7" d="M8.41893 8.00829L6.5614 6.2981" stroke="#C0C5D2" stroke-miterlimit="10" stroke-linecap="round" stroke-linejoin="round"/>
<path id="Vector_8" d="M8.6189 15.691L9.60291 12.4653" stroke="#C0C5D2" stroke-miterlimit="10" stroke-linecap="round" stroke-linejoin="round"/>
<path id="Vector_9" d="M13.6284 9.53431L16.1963 9.25015" stroke="#C0C5D2" stroke-miterlimit="10" stroke-linecap="round" stroke-linejoin="round"/>
</g>
</svg>
