<svg width="52" height="52" viewBox="0 0 52 52" fill="none" xmlns="http://www.w3.org/2000/svg">
<g id="help">
<path id="Combined Shape" fill-rule="evenodd" clip-rule="evenodd" d="M26.0002 7.58325C36.1714 7.58325 44.4168 15.8287 44.4168 25.9999C44.4168 36.1712 36.1714 44.4166 26.0002 44.4166C15.8289 44.4166 7.5835 36.1712 7.5835 25.9999C7.5835 15.8287 15.8289 7.58325 26.0002 7.58325ZM31.089 28.8775C31.7013 29.4898 31.7013 30.4825 31.089 31.0948C30.4767 31.7071 29.484 31.7071 28.8717 31.0948L25.9768 28.2L23.0795 31.0973C22.4672 31.7096 21.4745 31.7096 20.8622 31.0973C20.2499 30.485 20.2499 29.4922 20.8622 28.8799L23.7656 25.9766L20.8616 23.0726C20.2493 22.4603 20.2493 21.4675 20.8616 20.8552C21.4739 20.2429 22.4666 20.2429 23.0789 20.8552L25.9737 23.7501L28.871 20.8528C29.4833 20.2405 30.476 20.2405 31.0883 20.8528C31.7006 21.4651 31.7006 22.4578 31.0883 23.0701L28.185 25.9735L31.089 28.8775Z" fill="#EF3F26"/>
</g>
</svg>
