<svg width="17" height="17" viewBox="0 0 17 17" fill="none" xmlns="http://www.w3.org/2000/svg">
<g id="icon-park-outline:help" clip-path="url(#clip0_537_2148)">
<g id="Group">
<path id="Vector" d="M8.6198 15.5848C9.50087 15.586 10.3735 15.413 11.1875 15.0758C12.0015 14.7386 12.7408 14.2439 13.363 13.6201C13.9868 12.9979 14.4815 12.2585 14.8187 11.4445C15.1559 10.6306 15.3289 9.75795 15.3277 8.87688C15.3289 7.99582 15.1559 7.12322 14.8187 6.30923C14.4815 5.49524 13.9868 4.7559 13.363 4.1337C12.7408 3.50988 12.0015 3.01516 11.1875 2.67798C10.3735 2.3408 9.50087 2.16781 8.6198 2.16895C7.73874 2.16783 6.86614 2.34083 6.05215 2.678C5.23816 3.01518 4.49882 3.50989 3.87662 4.1337C3.25281 4.7559 2.7581 5.49524 2.42092 6.30923C2.08375 7.12322 1.91075 7.99582 1.91187 8.87688C1.91073 9.75795 2.08372 10.6306 2.4209 11.4445C2.75808 12.2585 3.2528 12.9979 3.87662 13.6201C4.49882 14.2439 5.23816 14.7386 6.05215 15.0758C6.86614 15.4129 7.73874 15.5859 8.6198 15.5848V15.5848Z" stroke="white" stroke-opacity="0.87" stroke-width="1.34028" stroke-linejoin="round"/>
<path id="Vector_2" d="M8.62029 10.4282V9.08665C9.0183 9.08665 9.40737 8.96863 9.73831 8.7475C10.0692 8.52638 10.3272 8.21209 10.4795 7.84437C10.6318 7.47666 10.6717 7.07204 10.594 6.68167C10.5164 6.29131 10.3247 5.93274 10.0433 5.6513C9.76182 5.36987 9.40325 5.17821 9.01289 5.10056C8.62252 5.02291 8.2179 5.06276 7.85019 5.21507C7.48247 5.36739 7.16818 5.62532 6.94706 5.95625C6.72593 6.28719 6.60791 6.67626 6.60791 7.07427" stroke="white" stroke-opacity="0.87" stroke-width="1.34028" stroke-linecap="round" stroke-linejoin="round"/>
<path id="Vector_3" fill-rule="evenodd" clip-rule="evenodd" d="M8.61904 13.1112C8.79694 13.1112 8.96756 13.0406 9.09336 12.9148C9.21916 12.789 9.28983 12.6184 9.28983 12.4404C9.28983 12.2625 9.21916 12.0919 9.09336 11.9661C8.96756 11.8403 8.79694 11.7697 8.61904 11.7697C8.44113 11.7697 8.27051 11.8403 8.14471 11.9661C8.01891 12.0919 7.94824 12.2625 7.94824 12.4404C7.94824 12.6184 8.01891 12.789 8.14471 12.9148C8.27051 13.0406 8.44113 13.1112 8.61904 13.1112Z" fill="white" fill-opacity="0.87"/>
</g>
</g>
<defs>
<clipPath id="clip0_537_2148">
<rect width="16.099" height="16.099" fill="white" transform="translate(0.56958 0.826782)"/>
</clipPath>
</defs>
</svg>
