<svg width="22" height="24" viewBox="0 0 22 24" fill="none" xmlns="http://www.w3.org/2000/svg">
<g id="Group 35783">
<path id="Vector" d="M6.26318 1.47369V4.63159M14.6842 1.47369V4.63159" stroke="#C0C5D2" stroke-width="2" stroke-miterlimit="10" stroke-linecap="round" stroke-linejoin="round"/>
<path id="Vector_2" d="M21 22.5263L19.9474 21.4737M17 21.8947C17.8934 21.8947 18.7501 21.5399 19.3818 20.9082C20.0135 20.2765 20.3684 19.4197 20.3684 18.5263C20.3684 17.633 20.0135 16.7762 19.3818 16.1445C18.7501 15.5128 17.8934 15.1579 17 15.1579C16.1067 15.1579 15.2499 15.5128 14.6182 16.1445C13.9865 16.7762 13.6316 17.633 13.6316 18.5263C13.6316 19.4197 13.9865 20.2765 14.6182 20.9082C15.2499 21.5399 16.1067 21.8947 17 21.8947Z" stroke="#C0C5D2" stroke-width="2" stroke-linecap="round" stroke-linejoin="round"/>
<path id="Vector_3" d="M1.52632 8.93685H19.4211M11.9158 22.5263H6.26316C2.57895 22.5263 1 20.4211 1 17.2632V8.3158C1 5.15791 2.57895 3.05264 6.26316 3.05264H14.6842C18.3684 3.05264 19.9474 5.15791 19.9474 8.3158V13.0526" stroke="#C0C5D2" stroke-width="2" stroke-miterlimit="10" stroke-linecap="round" stroke-linejoin="round"/>
<path id="Vector_4" d="M10.4684 13.7895H10.4789M6.57263 13.7895H6.58316M6.57263 16.9474H6.58316" stroke="#C0C5D2" stroke-width="2" stroke-linecap="round" stroke-linejoin="round"/>
</g>
</svg>
