<svg width="24" height="24" viewBox="0 0 24 24" fill="none" xmlns="http://www.w3.org/2000/svg">
<g id="Group">
<g id="Group_2">
<path id="Path" d="M16.2678 2.73223C17.2441 3.70854 17.2441 5.29145 16.2678 6.26776C15.2915 7.24407 13.7085 7.24407 12.7322 6.26776C11.7559 5.29145 11.7559 3.70854 12.7322 2.73223C13.7085 1.75592 15.2915 1.75592 16.2678 2.73223" stroke="#FAFBFC" stroke-width="1.5" stroke-linecap="round" stroke-linejoin="round"/>
<path id="Path_2" d="M8.82842 7.17157C10.3905 8.73368 10.3905 11.2663 8.82842 12.8284C7.26632 14.3905 4.73366 14.3905 3.17157 12.8284C1.60947 11.2663 1.60947 8.73366 3.17157 7.17157C4.73368 5.60947 7.26633 5.60947 8.82842 7.17157" stroke="#FAFBFC" stroke-width="1.5" stroke-linecap="round" stroke-linejoin="round"/>
<path id="Path_3" d="M10 10H2" stroke="#FAFBFC" stroke-width="1.5" stroke-linecap="round" stroke-linejoin="round"/>
<path id="Path_4" fill-rule="evenodd" clip-rule="evenodd" d="M21.115 15.155L16.155 20.115C14.975 21.295 13.063 21.295 11.883 20.115V20.115C10.703 18.935 10.703 17.023 11.883 15.843L16.843 10.883C18.023 9.703 19.935 9.703 21.115 10.883V10.883C22.295 12.063 22.295 13.976 21.115 15.155Z" stroke="#FAFBFC" stroke-width="1.5" stroke-linecap="round" stroke-linejoin="round"/>
<path id="Path_5" d="M14.3799 13.38L18.6199 17.62" stroke="#FAFBFC" stroke-width="1.5" stroke-linecap="round" stroke-linejoin="round"/>
</g>
</g>
</svg>
