<svg width="18" height="22" viewBox="0 0 18 22" fill="none" xmlns="http://www.w3.org/2000/svg">
<g id="Group 58"> 
<g id="Group">
<g id="Group_2">
<path id="Vector" d="M17.04 18.094L16.99 18.089C16.995 17.834 17 17.564 17 17.244C17 9.68395 13 7.24395 10.335 6.24395H7.48C5 7.24395 1 9.18395 1 17.244C1 17.559 1.00499 17.839 1.00999 18.089L0.960007 18.099C0.410007 18.184 0 18.659 0 19.219C0 19.804 0.444994 20.289 1.02499 20.344L3.22 20.464C4.675 20.944 6.725 21.249 9 21.249C11.275 21.249 13.325 20.949 14.78 20.464L16.975 20.344C17.555 20.289 18 19.799 18 19.219C18 18.654 17.59 18.179 17.04 18.094ZM8.64 12.374L9.94 13.044C10.645 13.409 11.025 14.154 10.895 14.949C10.79 15.604 10.36 16.114 9.77 16.329V16.619C9.77 16.964 9.49 17.244 9.145 17.244C8.8 17.244 8.52 16.964 8.52 16.619V16.369C7.89 16.199 7.355 15.754 7.08 15.129C6.94 14.814 7.085 14.444 7.405 14.304C7.72 14.169 8.09001 14.314 8.22501 14.629C8.38501 15.004 8.765 15.229 9.17 15.189L9.23 15.184C9.56 15.134 9.635 14.864 9.655 14.754C9.685 14.554 9.625 14.294 9.36 14.159L8.06 13.489C7.345 13.119 6.96501 12.339 7.11501 11.549C7.25501 10.809 7.79499 10.274 8.50999 10.134V9.86895C8.50999 9.52395 8.78999 9.24395 9.13499 9.24395C9.47999 9.24395 9.75999 9.52395 9.75999 9.86895V10.274C10.27 10.489 10.685 10.884 10.915 11.409C11.055 11.724 10.91 12.094 10.59 12.229C10.275 12.369 9.905 12.219 9.77 11.904C9.61 11.534 9.23 11.304 8.825 11.344C8.45 11.384 8.365 11.689 8.345 11.779C8.33 11.869 8.3 12.199 8.64 12.374Z" fill="#C0C5D2"/>
<path id="Vector_2" d="M11.125 0.858954C10.69 0.583954 9.95 0.853954 9.325 1.44895C9.02 1.73895 8.55501 1.73895 8.25501 1.44895C7.63001 0.853954 6.895 0.593954 6.455 0.858954C5 1.73895 6.96 4.80895 7.14 4.98395H10.44C10.62 4.80895 12.5 1.73895 11.125 0.858954Z" fill="#C0C5D2"/>
</g>
</g>
</g>
</svg>
