<svg  viewBox="0 0 20 24" fill="none" xmlns="http://www.w3.org/2000/svg">
<g id="Group">
<g id="Group_2">
<path id="Vector" d="M10 23.4664C8.65583 23.4664 7.41128 22.2456 6.49553 20.0288C5.60795 17.8804 5.1192 15.0289 5.1192 12C5.1192 8.97105 5.60795 6.11972 6.49553 3.9712C7.41128 1.75441 8.65599 0.533569 10 0.533569C11.3442 0.533569 12.5887 1.75441 13.5045 3.9712C14.3921 6.11972 14.8808 8.97105 14.8808 12C14.8808 15.0289 14.3921 17.8802 13.5045 20.0288C12.5887 22.2456 11.3442 23.4664 10 23.4664ZM10 1.01532C9.4425 1.01532 8.89407 1.28746 8.36999 1.82396C7.83939 2.36729 7.36035 3.15094 6.94624 4.15343C6.08206 6.24545 5.60604 9.032 5.60604 12C5.60604 14.968 6.08206 17.7545 6.94624 19.8465C7.36035 20.849 7.83939 21.6328 8.36999 22.176C8.89407 22.7127 9.4425 22.9847 10 22.9847C10.5575 22.9847 11.1059 22.7125 11.63 22.176C12.1606 21.6327 12.6397 20.849 13.0538 19.8465C13.918 17.7545 14.394 14.968 14.394 12C14.394 9.032 13.918 6.24545 13.0538 4.15343C12.6397 3.15094 12.1606 2.36713 11.63 1.82396C11.1059 1.2873 10.5575 1.01532 10 1.01532Z" fill="#C0C5D2"/>
</g>
<path id="Vector_2" d="M16.712 19.5898C16.126 19.5898 15.4727 19.5168 14.7606 19.3691C12.4641 18.8926 9.80232 17.6958 7.26563 15.9988C4.72894 14.3019 2.6148 12.304 1.3128 10.3733C-0.0307448 8.38108 -0.355888 6.67755 0.397209 5.57623C1.15031 4.47491 2.86992 4.13927 5.2395 4.63088C7.53603 5.10738 10.1978 6.30418 12.7345 8.00119C15.2712 9.69805 17.3853 11.696 18.6873 13.6268C20.0309 15.6191 20.356 17.3226 19.6029 18.4239C19.0761 19.194 18.0764 19.5898 16.712 19.5898ZM3.2923 4.89157C2.96923 4.89157 2.66828 4.9156 2.39088 4.96366C1.64781 5.09242 1.11275 5.38939 0.800494 5.84615C0.488242 6.30291 0.408827 6.90465 0.564635 7.63467C0.722352 8.37376 1.11036 9.20532 1.71799 10.1063C2.98578 11.9863 5.05297 13.9373 7.53857 15.6001C10.0242 17.2629 12.6247 18.4341 14.8607 18.898C15.9323 19.1203 16.8571 19.1668 17.6092 19.0366C18.3522 18.9079 18.8874 18.6109 19.1996 18.1541C19.5119 17.6974 19.5913 17.0956 19.4355 16.3656C19.2778 15.6265 18.8898 14.795 18.2821 13.894C17.0143 12.014 14.9472 10.0628 12.4616 8.40018C9.97595 6.73739 7.3756 5.56605 5.13939 5.10212C4.46301 4.96191 3.84519 4.89157 3.2923 4.89157Z" fill="#C0C5D2"/>
<g id="Group_3">
<path id="Vector_3" d="M3.288 19.5898C1.92345 19.5898 0.923834 19.1942 0.397048 18.4238C-0.356048 17.3224 -0.0307459 15.6189 1.31264 13.6267C2.6148 11.6959 4.72878 9.69805 7.26547 8.00104C9.80216 6.30419 12.4639 5.10722 14.7605 4.63073C17.13 4.13912 18.8497 4.47492 19.6028 5.57608C20.3559 6.67739 20.0306 8.38093 18.6872 10.3732C17.3852 12.304 15.271 14.3018 12.7343 15.9986C10.1976 17.6955 7.53587 18.8924 5.23934 19.3689C4.52746 19.5168 3.87399 19.5898 3.288 19.5898ZM16.7077 4.89157C16.1548 4.89157 15.537 4.96192 14.8606 5.10229C12.6244 5.56621 10.024 6.73739 7.53841 8.40019C5.05281 10.0628 2.98562 12.0138 1.71783 13.8939C1.11036 14.7948 0.722191 15.6264 0.564474 16.3655C0.408666 17.0955 0.488082 17.6972 0.800334 18.154C1.11259 18.6108 1.64781 18.9076 2.39072 19.0365C3.14302 19.1668 4.06768 19.1202 5.13923 18.8979C7.37544 18.4339 9.97579 17.2628 12.4614 15.6C14.947 13.9372 17.0142 11.9861 18.282 10.1061C18.8894 9.20517 19.2776 8.37361 19.4353 7.63452C19.5911 6.9045 19.5117 6.30276 19.1995 5.846C18.8872 5.38924 18.352 5.09242 17.6091 4.96351C17.3317 4.91561 17.0307 4.89157 16.7077 4.89157Z" fill="#C0C5D2"/>
</g>
<g id="Group_4">
<path id="Vector_4" d="M10 13.5087C10.8425 13.5087 11.5254 12.8332 11.5254 12C11.5254 11.1667 10.8425 10.4912 10 10.4912C9.15752 10.4912 8.47455 11.1667 8.47455 12C8.47455 12.8332 9.15752 13.5087 10 13.5087Z" fill="#C0C5D2"/>
</g>
<g id="Group_5">
<path id="Vector_5" d="M4.02166 5.50812C4.51168 5.50812 4.90892 5.11523 4.90892 4.63057C4.90892 4.14591 4.51168 3.75302 4.02166 3.75302C3.53164 3.75302 3.1344 4.14591 3.1344 4.63057C3.1344 5.11523 3.53164 5.50812 4.02166 5.50812Z" fill="#C0C5D2"/>
</g>
<g id="Group_6">
<path id="Vector_6" d="M3.53356 20.2341C4.02358 20.2341 4.42082 19.8412 4.42082 19.3565C4.42082 18.8719 4.02358 18.479 3.53356 18.479C3.04354 18.479 2.6463 18.8719 2.6463 19.3565C2.6463 19.8412 3.04354 20.2341 3.53356 20.2341Z" fill="#C0C5D2"/>
</g>
<g id="Group_7">
<path id="Vector_7" d="M18.4222 19.9323C18.9122 19.9323 19.3094 19.5394 19.3094 19.0548C19.3094 18.5701 18.9122 18.1772 18.4222 18.1772C17.9322 18.1772 17.5349 18.5701 17.5349 19.0548C17.5349 19.5394 17.9322 19.9323 18.4222 19.9323Z" fill="#C0C5D2"/>
</g>
</g>
</svg>
