<svg width="70" height="19" viewBox="0 0 70 19" fill="none" xmlns="http://www.w3.org/2000/svg">
<g id="20211002073722!Samsung_Logo">
<g id="g8">
<g id="g10">
<g id="Clip path group">
<mask id="mask0_1047_4332" style="mask-type:luminance" maskUnits="userSpaceOnUse" x="0" y="0" width="70" height="19">
<g id="clipPath16">
<path id="path14" d="M0 0.236071H70V18.8309H0V0.236071Z" fill="white"/>
</g>
</mask>
<g mask="url(#mask0_1047_4332)">
<g id="g12">
<g id="g18">
<path id="path20" d="M62.2781 8.96898V10.2345H63.1675V11.4901C63.1703 11.6023 63.1641 11.7233 63.1449 11.8202C63.1095 12.0544 62.887 12.4532 62.2557 12.4532C61.6282 12.4532 61.4097 12.0544 61.3718 11.8202C61.3559 11.7233 61.3491 11.6023 61.3491 11.4901V7.52427C61.3491 7.38399 61.3585 7.23045 61.3883 7.11423C61.4314 6.90287 61.6187 6.48603 62.251 6.48603C62.9148 6.48603 63.0805 6.92548 63.1184 7.11423C63.1434 7.23925 63.1449 7.44895 63.1449 7.44895V7.93052H65.3302V7.64583C65.3302 7.64583 65.3401 7.34878 65.3136 7.07156C65.1493 5.44378 63.8082 4.92879 62.2703 4.92879C60.7297 4.92879 59.4156 5.44858 59.2242 7.07156C59.207 7.21997 59.1805 7.48694 59.1805 7.64583V11.294C59.1805 11.4529 59.1857 11.5759 59.2151 11.8663C59.3577 13.4493 60.7297 14.0104 62.2642 14.0104C63.8082 14.0104 65.1706 13.4493 65.3157 11.8663C65.3414 11.5759 65.3441 11.4529 65.3476 11.294V8.96898H62.2781ZM47.2098 5.16222H45.0153V11.5816C45.0187 11.6935 45.0153 11.8192 44.996 11.9113C44.9502 12.1268 44.7676 12.5415 44.1621 12.5415C43.5644 12.5415 43.377 12.1268 43.3347 11.9113C43.3127 11.8192 43.3099 11.6935 43.3127 11.5816V5.16222H41.1188V11.3824C41.116 11.5427 41.1286 11.8703 41.1381 11.9561C41.2895 13.577 42.567 14.1032 44.1621 14.1032C45.7603 14.1032 47.037 13.577 47.1912 11.9561C47.2034 11.8703 47.2193 11.5427 47.2098 11.3824V5.16222ZM27.0457 5.16222L25.9509 11.9452L24.8569 5.16222H21.3169L21.1291 13.8396H23.2979L23.3566 5.80669L24.8488 13.8396H27.0491L28.5426 5.80669L28.6016 13.8396H30.7758L30.5817 5.16222H27.0457ZM13.9389 5.16222L12.3315 13.8396H14.6755L15.8868 5.80669L17.069 13.8396H19.3967L17.796 5.16222H13.9389ZM54.8795 12.1485L52.836 5.16222H49.6159V13.7491H51.7461L51.6224 6.53929L53.817 13.7491H56.9053V5.16222H54.7612L54.8795 12.1485ZM35.1757 7.42054C35.1372 7.24917 35.1483 7.0671 35.1683 6.97195C35.2303 6.69417 35.417 6.39121 35.9547 6.39121C36.4559 6.39121 36.7497 6.70364 36.7497 7.17251V7.7031H38.889V7.0983C38.889 5.22863 37.2128 4.93492 35.9992 4.93492C34.4707 4.93492 33.2224 5.43877 32.9944 6.84559C32.9341 7.22844 32.9192 7.56828 33.0151 8.00194C33.3869 9.75607 36.4406 10.2649 36.8839 11.3743C36.9621 11.5844 36.9397 11.8524 36.8998 12.0103C36.8334 12.299 36.6392 12.5893 36.0634 12.5893C35.5235 12.5893 35.1985 12.2789 35.1985 11.811L35.1978 10.9783H32.8951V11.6402C32.8951 13.5584 34.3976 14.1371 36.0158 14.1371C37.5655 14.1371 38.8456 13.6075 39.0509 12.1719C39.1489 11.4302 39.075 10.9471 39.0357 10.7651C38.6769 8.96597 35.4221 8.42479 35.1757 7.42054ZM6.95537 7.39925C6.91337 7.22432 6.92317 7.03969 6.94657 6.94342C7.00585 6.66698 7.19359 6.35868 7.74079 6.35868C8.24832 6.35868 8.54716 6.67411 8.54716 7.14677V7.68383H10.7115V7.07423C10.7115 5.18662 9.00967 4.88578 7.7828 4.88578C6.24149 4.88578 4.98208 5.39743 4.75166 6.8144C4.68859 7.20337 4.67778 7.54555 4.76892 7.984C5.14464 9.75807 8.2286 10.2711 8.6773 11.3936C8.76131 11.6023 8.73591 11.8703 8.69424 12.0343C8.62304 12.326 8.42727 12.6205 7.84676 12.6205C7.30468 12.6205 6.98045 12.3048 6.98045 11.8304L6.97744 10.9954H4.64893V11.6589C4.64893 13.599 6.17263 14.1824 7.80341 14.1824C9.37124 14.1824 10.6587 13.6482 10.8688 12.196C10.9732 11.4475 10.8948 10.9603 10.8596 10.7756C10.4934 8.95438 7.2024 8.41498 6.95537 7.39925Z" fill="#FAFBFC"/>
</g>
</g>
</g>
</g>
</g>
</g>
</g>
</svg>
