<svg width="70" height="35" viewBox="0 0 70 35" fill="none" xmlns="http://www.w3.org/2000/svg">
<g id="logo__version-03" clip-path="url(#clip0_1047_4303)">
<path id="Vector" d="M19.4048 12.9994C19.288 12.765 18.9787 12.5742 18.7166 12.5742H18.1835C17.9223 12.5742 17.6156 12.7677 17.5024 13.0039L13.2777 21.8295C13.16 22.063 13.2875 22.2297 13.5496 22.2297H14.5258C14.9109 22.2297 15.0874 22.055 15.1917 21.8402C15.2969 21.6253 15.5287 21.1582 15.5732 21.0637C15.633 20.9344 15.8193 20.856 16.0805 20.856L20.6261 20.8586C20.8882 20.8595 21.0567 20.9086 21.1342 21.0637C21.185 21.1644 21.4168 21.5843 21.5309 21.8134C21.6459 22.0425 21.8394 22.2306 22.2147 22.2306H23.6312C23.8933 22.2306 24.0074 22.0318 23.9138 21.8473C23.8211 21.661 19.4048 12.9994 19.4048 12.9994ZM16.7357 19.492C16.4736 19.492 16.3506 19.2968 16.4611 19.0606L18.1255 15.4947C18.2361 15.2575 18.4153 15.2584 18.5231 15.4965L20.1438 19.0623C20.2517 19.3004 20.126 19.4947 19.8648 19.4947L16.7357 19.492ZM52.0477 13.0672V21.8232C52.0477 22.0639 52.2617 22.2297 52.5238 22.2297H53.6782C53.9403 22.2297 54.1543 22.063 54.1543 21.8009V13.0503C54.1543 12.7882 53.9849 12.5742 53.7237 12.5742H52.5238C52.2626 12.5733 52.0477 12.7347 52.0477 13.0672ZM32.7028 18.5515C32.5522 18.3376 32.6351 18.1004 32.8856 18.0256C32.8856 18.0256 33.8831 17.7269 34.361 17.299C34.8388 16.8693 35.0786 16.2497 35.0786 15.4421C35.0786 14.9134 34.9859 14.4695 34.8022 14.1084C34.6186 13.7483 34.3547 13.4532 34.0115 13.2277C33.6683 13.0012 33.2582 12.8345 32.7795 12.7302C32.3008 12.6268 31.6545 12.5965 31.6545 12.5965C31.3924 12.5849 30.9645 12.5751 30.7033 12.5751H25.9089C25.6477 12.5751 25.4329 12.7891 25.4329 13.0512V21.8018C25.4329 22.0639 25.6469 22.2306 25.9089 22.2306H27.0438C27.3059 22.2306 27.5198 22.0639 27.5198 21.8018C27.5198 21.8018 27.5207 18.3215 27.5225 18.3215C27.5243 18.3215 27.5261 18.3197 27.5261 18.3171C27.5261 18.3144 29.6763 18.3117 29.6763 18.3117C29.9375 18.3117 30.2754 18.4864 30.4269 18.7013L32.6592 21.8446C32.8669 22.1228 33.0639 22.2315 33.326 22.2315H34.8085C35.0706 22.2315 35.1116 21.9846 35.0207 21.8562C34.9315 21.7269 32.7028 18.5515 32.7028 18.5515ZM31.7998 16.7739C31.5056 16.8417 31.1749 16.8551 31.1749 16.8551C30.9137 16.8666 30.4858 16.8756 30.2237 16.8756H28.0012C27.7391 16.8756 27.5252 16.6616 27.5252 16.3995V14.6264C27.5252 14.3643 27.7391 14.1503 28.0012 14.1503H30.2237C30.4858 14.1503 30.9137 14.1601 31.1749 14.1708C31.1749 14.1708 31.5056 14.1842 31.7998 14.252C32.094 14.3197 32.3266 14.4142 32.4969 14.5363C32.6681 14.6594 32.7902 14.8038 32.8642 14.9687C32.9373 15.1345 32.9738 15.3146 32.9738 15.5116C32.9738 15.7077 32.9364 15.8887 32.8642 16.0545C32.7902 16.2203 32.6681 16.3647 32.4969 16.4869C32.3266 16.6117 32.094 16.7071 31.7998 16.7739ZM66.2221 12.5733C65.96 12.5733 65.7487 12.7463 65.7487 12.9977L65.7514 18.5952C65.7514 18.8573 65.6034 18.917 65.4216 18.7289L59.8169 12.9157C59.635 12.7276 59.3685 12.5733 59.0101 12.5733H57.9564C57.6248 12.5733 57.4795 12.7498 57.4795 12.929V21.8794C57.4795 22.0577 57.6497 22.2279 57.9118 22.2279H58.9673C59.2285 22.2279 59.4122 22.0853 59.4122 21.8446C59.4122 21.7234 59.4175 15.9475 59.4175 15.9475C59.4175 15.6854 59.5655 15.6257 59.7465 15.8147L65.59 21.8901C65.7755 22.0755 66.001 22.2271 66.4022 22.2271H67.1956C67.4577 22.2271 67.6716 22.0131 67.6716 21.751V13.0467C67.6716 12.7846 67.4577 12.5707 67.1956 12.5707H66.2221V12.5733ZM43.3711 18.0318C43.2436 18.2609 43.035 18.26 42.9093 18.0309L40.1698 13.0003C40.053 12.7668 39.815 12.5751 39.4816 12.5751H37.9955C37.7334 12.5751 37.5194 12.7891 37.5194 13.0512V21.7911C37.5194 22.0523 37.6915 22.2315 37.9955 22.2315H38.9191C39.1811 22.2315 39.3701 22.0666 39.3701 21.8134C39.3701 21.6922 39.3737 15.4572 39.3835 15.4572C39.3933 15.4572 42.8032 21.8116 42.8032 21.8116C42.9262 22.0425 43.2293 22.0434 43.3559 21.8134C43.3559 21.8134 46.7934 15.4751 46.8032 15.4751C46.8139 15.4751 46.8103 21.6316 46.8103 21.8134C46.8103 22.0657 47.0127 22.2315 47.2748 22.2315H48.3383C48.6004 22.2315 48.8144 22.1014 48.8144 21.7555V13.0512C48.8144 12.7891 48.6004 12.5751 48.3383 12.5751H46.9138C46.55 12.5751 46.3316 12.7605 46.2015 12.9879L43.3711 18.0318ZM1.13232 17.3926C1.13232 22.1076 5.95518 22.3465 6.92242 22.3465C10.1228 22.3465 11.4752 21.4818 11.5313 21.4443C11.7319 21.3311 11.9753 21.1029 11.9753 20.675V17.4211C11.9753 17.1216 11.731 16.8773 11.4315 16.8773H7.41095C7.11052 16.8773 6.91351 17.1216 6.91351 17.4211V17.7581C6.91351 18.0585 7.11052 18.3037 7.41095 18.3037H9.73679C9.96144 18.3037 10.1433 18.4864 10.1433 18.7102C10.1433 18.7102 10.1406 20.1366 10.1406 20.2275C9.68152 20.4156 7.58835 21.0262 5.90704 20.6251C3.46797 20.0421 3.27809 18.0291 3.27809 17.4265C3.27809 16.921 3.42964 14.3866 6.42498 14.1298C8.84978 13.9221 10.4464 14.901 10.4624 14.9108C10.7477 15.0587 11.0428 14.9536 11.2015 14.6513C11.2024 14.6487 11.5037 14.038 11.5037 14.038C11.6294 13.7866 11.5875 13.5263 11.2799 13.3186C11.2594 13.307 9.55939 12.3852 6.92242 12.3852C1.29457 12.3861 1.13232 16.8809 1.13232 17.3926ZM70.0314 20.2204C70.6384 20.2204 71.1323 20.7142 71.1323 21.3213C71.1323 21.9284 70.6384 22.4223 70.0314 22.4223C69.4243 22.4223 68.9295 21.9284 68.9295 21.3213C68.9295 20.7151 69.4243 20.2204 70.0314 20.2204ZM70.034 22.2583C70.5404 22.2583 70.9219 21.85 70.9219 21.3222C70.9219 20.7945 70.5404 20.3853 70.034 20.3853C69.5214 20.3853 69.1399 20.7945 69.1399 21.3222C69.1399 21.85 69.5214 22.2583 70.034 22.2583ZM69.6106 20.675H70.1045C70.4004 20.675 70.5466 20.7945 70.5466 21.0378C70.5466 21.2455 70.4156 21.3953 70.2141 21.3953L70.5805 21.9659H70.3576L69.9975 21.3953H69.821V21.9659H69.6106V20.675ZM69.821 21.2304H70.0715C70.2328 21.2304 70.3371 21.1974 70.3371 21.0289C70.3371 20.8818 70.2061 20.8399 70.0715 20.8399H69.821V21.2304Z" fill="#FAFBFC"/>
</g>
<defs>
<clipPath id="clip0_1047_4303">
<rect width="70" height="34.7667" fill="white" transform="translate(0 0.0189285)"/>
</clipPath>
</defs>
</svg>
