<svg width="70" height="23" viewBox="0 0 70 23" fill="none" xmlns="http://www.w3.org/2000/svg">
<g id="cala-logo-registered-black 1" clip-path="url(#clip0_1047_4349)">
<path id="Vector" d="M3.83682 14.111C3.83682 16.7762 5.38912 18.7679 7.93724 18.7679C9.78243 18.7679 10.8075 17.6842 11.569 16.5127C11.7741 16.1905 12.2134 15.6926 12.9163 15.6926C13.9707 15.6926 14.5858 16.4834 14.5858 17.3327C14.5858 17.7428 14.41 18.1821 14.1757 18.5629C12.9749 20.6131 10.8368 22.0189 7.64435 22.0189C3.22176 22.0189 0 18.5043 0 14.111C0 9.71767 3.19247 6.17374 7.64435 6.17374C10.6904 6.17374 12.7406 7.49173 14 9.27834C14.2929 9.68838 14.4686 10.1863 14.4686 10.5378C14.4686 11.5043 13.6192 12.1193 12.7992 12.1193C12.3305 12.1193 11.8619 11.9143 11.4519 11.3578C10.7782 10.4499 9.81172 9.36621 7.93724 9.36621C5.41841 9.3955 3.83682 11.4457 3.83682 14.111ZM17.9247 14.111C17.9247 9.71767 21.0879 6.17374 25.5397 6.17374C27.4142 6.17374 29.2301 6.96453 30.0795 8.31181C30.0795 7.40386 30.4895 6.29089 31.8954 6.29089C33.0377 6.29089 33.7406 7.14027 33.7406 8.19466V19.998C33.7406 21.0817 33.0084 21.9018 31.8954 21.9018C30.4602 21.9018 30.0795 20.6716 30.0795 19.793C29.2301 21.1403 27.5607 22.0189 25.5397 22.0189C21.0879 22.0189 17.9247 18.5336 17.9247 14.111ZM25.8326 9.3955C23.3138 9.3955 21.7615 11.4457 21.7615 14.111C21.7615 16.7762 23.2845 18.7972 25.8326 18.7972C28.4393 18.7972 29.9623 16.7177 29.9623 14.111C29.9331 11.5043 28.4393 9.3955 25.8326 9.3955ZM42.9372 19.9687C42.9372 21.0231 42.0879 21.8725 41.0335 21.8725C39.9791 21.8725 39.1297 20.9938 39.1297 19.9687V2.83483C39.1297 1.78043 40.0084 0.931061 41.0335 0.931061C42.1172 0.931061 42.9372 1.80972 42.9372 2.83483V19.9687ZM47.4184 14.111C47.4184 9.71767 50.5816 6.17374 55.0335 6.17374C56.9079 6.17374 58.7238 6.96453 59.5732 8.31181C59.5732 7.40386 59.9833 6.29089 61.3891 6.29089C62.5314 6.29089 63.2343 7.14027 63.2343 8.19466V19.9687C63.2343 21.0524 62.5021 21.8725 61.3891 21.8725C59.9247 21.8725 59.5732 20.6424 59.5732 19.7637C58.7238 21.111 57.0544 21.9896 55.0335 21.9896C50.6109 22.0189 47.4184 18.5336 47.4184 14.111ZM55.3264 9.3955C52.8075 9.3955 51.2552 11.4457 51.2552 14.111C51.2552 16.7762 52.7782 18.7972 55.3264 18.7972C57.933 18.7972 59.4268 16.7177 59.4268 14.111C59.4268 11.5043 57.933 9.3955 55.3264 9.3955ZM67.8912 10.0398C66.8661 10.0398 66.046 9.19048 66.046 8.16537C66.046 7.14027 66.8661 6.29089 67.8912 6.29089C68.9163 6.29089 69.7364 7.14027 69.7364 8.16537C69.7364 9.19048 68.887 10.0398 67.8912 10.0398ZM67.8912 6.55449C67.0418 6.55449 66.3096 7.25742 66.3096 8.16537C66.3096 9.07332 67.0418 9.77625 67.8912 9.77625C68.7406 9.77625 69.4728 9.07332 69.4728 8.16537C69.4435 7.25742 68.7406 6.55449 67.8912 6.55449ZM67.9205 8.37039H67.364V9.04403C67.364 9.1319 67.3054 9.16119 67.2469 9.16119C67.159 9.16119 67.1004 9.10261 67.1004 9.04403V7.34529C67.1004 7.28671 67.159 7.19884 67.2469 7.19884H68.0377C68.272 7.19884 68.4477 7.25742 68.5941 7.40386C68.682 7.49173 68.7406 7.60888 68.7406 7.75533C68.7406 7.93106 68.682 8.0775 68.5941 8.16537C68.5063 8.25324 68.3891 8.31181 68.2427 8.31181L68.682 8.89759C68.682 8.92688 68.7113 8.95617 68.7113 8.98545C68.7113 9.07332 68.6527 9.10261 68.5941 9.10261C68.5648 9.10261 68.5063 9.07332 68.5063 9.04403L67.9205 8.37039ZM67.3933 7.46244V8.13608H68.0669C68.2427 8.13608 68.3598 8.0775 68.4184 8.04822C68.477 7.98964 68.5063 7.90177 68.5063 7.81391C68.5063 7.72604 68.477 7.66746 68.4184 7.60888C68.3305 7.52102 68.2134 7.49173 68.0669 7.49173L67.3933 7.46244Z" fill="#FAFBFC"/>
</g>
<defs>
<clipPath id="clip0_1047_4349">
<rect width="70" height="21.0879" fill="white" transform="translate(0 0.931061)"/>
</clipPath>
</defs>
</svg>
