<svg width="70" height="17" viewBox="0 0 70 17" fill="none" xmlns="http://www.w3.org/2000/svg">
<g id="Apple_Watch_official_logo" clip-path="url(#clip0_1047_4306)">
<g id="Group">
<g id="Group_2">
<path id="Vector" d="M24.9588 12.8607H24.9268L22.9668 4.85282H20.6612L18.7092 12.8607H18.677L16.8617 4.85282H14.4356L17.4881 16.0641H19.7774L21.7936 8.40078H21.8339L23.8501 16.0641H26.1557L29.2001 4.85282H26.7741L24.9588 12.8607ZM53.9335 4.67204C51.0418 4.67204 49.3146 6.58574 49.3146 9.79719V11.1528C49.3146 14.3971 51.0335 16.2535 53.9253 16.2535C56.825 16.2535 58.2713 14.4464 58.2713 12.4255V12.2205H56.0945C56.0945 13.3785 55.532 14.2819 53.9655 14.2819C52.3911 14.2819 51.62 13.2881 51.62 11.1528V9.79719C51.62 7.68672 52.3991 6.62708 53.9495 6.62708C55.4033 6.62708 56.0942 7.61259 56.0942 8.72156H58.2711V8.60637C58.2713 6.42149 56.6487 4.67204 53.9335 4.67204ZM32.8713 4.85282L29.3368 16.0641H31.6102L32.4041 13.2388H35.873L36.6546 16.0641H39.0886L35.5624 4.85282H32.8713ZM32.8892 11.5141L34.1406 7.06223H34.1646L35.396 11.5141H32.8892ZM67.4449 4.85282V9.35404H62.9624V4.85282H60.6894V16.0641H62.9624V11.284H67.4449V16.0644H69.7263V4.85282H67.4449ZM39.0486 6.79105H42.3097V16.0641H44.575V6.79105H47.8444V4.85282H39.0486V6.79105ZM10.1736 9.09389C10.1557 7.15952 11.7183 6.22885 11.7897 6.18393C10.9026 4.84841 9.53233 4.70097 9.04977 4.66404C7.81788 4.57145 6.77367 5.3679 6.19052 5.3679C5.5991 5.3679 4.68717 4.68416 3.72013 4.70263C2.45076 4.72219 1.2806 5.45719 0.626346 6.62019C-0.692355 8.96133 0.289575 12.4285 1.57383 14.3268C2.20217 15.2555 2.95123 16.3009 3.93564 16.2625C4.88312 16.2245 5.24111 15.6356 6.38646 15.6356C7.53099 15.6356 7.85398 16.2625 8.85575 16.243C9.87516 16.2248 10.5214 15.2972 11.1448 14.3629C11.8669 13.2864 12.1634 12.2442 12.181 12.1877C12.1582 12.1799 10.1929 11.4088 10.1736 9.09389ZM8.28942 3.41038C8.81249 2.76467 9.16469 1.86377 9.06768 0.969753C8.31477 0.999793 7.40477 1.48263 6.86461 2.12751C6.38123 2.69991 5.95627 3.61597 6.07146 4.49373C6.91091 4.5596 7.7669 4.05692 8.28942 3.41038Z" fill="#FAFBFC"/>
</g>
</g>
</g>
<defs>
<clipPath id="clip0_1047_4306">
<rect width="70" height="15.4331" fill="white" transform="translate(0 0.830856)"/>
</clipPath>
</defs>
</svg>
