<svg width="70" height="25" viewBox="0 0 70 25" fill="none" xmlns="http://www.w3.org/2000/svg">
<g id="dexcom-logo-white 1" clip-path="url(#clip0_1047_4341)">
<g id="Dexcom">
<path id="M" d="M55.5044 7.47306H57.7907L58.1799 8.15409L58.3258 8.0568C58.3258 8.0568 59.6392 7.22983 61.2445 7.22983C62.4606 7.22983 63.3362 7.47306 63.8227 7.91086L63.9199 8.00815L64.0172 7.95951C65.0874 7.47306 66.0117 7.22983 66.8873 7.22983C69.1736 7.22983 70.0005 8.15409 70.0005 9.0297V17.5426H67.1791V10.2458C67.1791 9.17563 67.0818 8.88376 66.3035 8.88376C64.9415 8.88376 64.3577 9.90531 64.3577 9.90531V17.5912H61.5363V10.2945C61.5363 9.22428 61.4391 8.93241 60.6607 8.93241C59.2987 8.93241 58.715 9.95395 58.715 9.95395V17.6399H55.8936V9.51615C55.9422 8.10544 55.5044 7.47306 55.5044 7.47306Z" fill="white"/>
<path id="O" d="M43.5381 12.4835C43.5381 9.22428 45.4352 7.22983 48.5971 7.22983C51.7591 7.22983 53.6076 9.17563 53.6076 12.4835C53.6076 15.7913 51.7104 17.7371 48.5971 17.7371C45.4352 17.7371 43.5381 15.7913 43.5381 12.4835ZM46.6027 12.4835C46.6027 15.159 47.2351 16.1319 48.5485 16.1319C49.9105 16.1319 50.4943 15.2076 50.4943 12.4835C50.4943 9.75937 49.9105 8.83512 48.5485 8.83512C47.2351 8.83512 46.6027 9.80802 46.6027 12.4835Z" fill="white"/>
<path id="C" d="M38.8682 16.1319C37.3602 16.0832 36.6305 15.1103 36.6305 12.4835C36.6305 9.80802 37.3602 8.83512 38.8682 8.83512C40.2303 8.83512 41.2518 9.4675 41.2518 9.4675L42.2733 8.54325C42.2733 8.54325 41.0086 7.22983 38.5763 7.22983C35.4144 7.22983 33.5659 9.0297 33.5659 12.4835C33.5659 15.9373 35.4144 17.7371 38.5763 17.7371C41.0086 17.7371 42.2733 16.4237 42.2733 16.4237L41.2518 15.4995C41.2518 15.4995 40.2303 16.1319 38.8682 16.1319Z" fill="white"/>
<path id="X" d="M28.555 12.4835C30.3549 10.6836 31.8142 9.66207 32.4466 7.47305H29.6252C29.2847 8.73781 28.2632 10.0512 27.2416 11.1214C26.2201 10.0512 25.1985 8.68917 24.858 7.47305H22.0366C22.669 9.71071 24.1283 10.7323 25.9282 12.4835C24.1283 14.2833 22.669 15.3049 22.0366 17.4939H24.858C25.1985 16.2291 26.2201 14.9157 27.2416 13.8455C28.2632 14.9157 29.2847 16.2778 29.6252 17.4939H32.4466C31.7656 15.3049 30.3062 14.2833 28.555 12.4835Z" fill="white"/>
<path id="E" d="M11.2861 12.4835C11.2861 8.93239 12.9887 7.22982 16.2965 7.22982C20.5286 7.22982 20.7232 10.7809 20.4314 11.8511C18.8261 12.8726 16.9776 13.4077 14.5453 13.4077H14.3994V13.5537C14.3994 15.4508 15.0318 16.0832 16.5398 16.0832C17.9505 16.0832 18.972 15.4508 18.972 15.4508L19.9935 16.3751C19.9935 16.3751 18.7288 17.6885 16.2965 17.6885C12.8428 17.7371 11.2861 16.1805 11.2861 12.4835ZM14.3994 11.8997V12.0457H14.5453C16.8316 12.0457 18.0478 11.2187 18.0478 11.2187C18.0478 11.2187 18.3396 8.8351 16.3938 8.8351C14.594 8.8351 14.3994 10.1972 14.3994 11.8997Z" fill="white"/>
<path id="D" d="M0.000488281 7.47305H4.08665C7.54043 7.47305 9.243 9.12697 9.243 12.4835C9.243 15.8886 7.54043 17.5426 4.08665 17.5426H0.000488281V7.47305ZM3.11375 9.07833V15.9373C3.11375 15.9373 3.25969 15.9373 4.52445 15.9373C5.78922 15.9373 6.17837 14.7211 6.17837 12.4835C6.17837 10.2458 5.59464 9.07833 4.42716 9.07833C3.25969 9.07833 3.11375 9.07833 3.11375 9.07833Z" fill="white"/>
</g>
</g>
<defs>
<clipPath id="clip0_1047_4341">
<rect width="70" height="23.2833" fill="white" transform="translate(0 0.785591)"/>
</clipPath>
</defs>
</svg>
