<svg width="70" height="19" viewBox="0 0 70 19" fill="none" xmlns="http://www.w3.org/2000/svg">
<g id="Fitbit_logo" clip-path="url(#clip0_1047_4310)">
<path id="Vector" d="M25.9943 6.94234H22.7089V5.33934C22.7238 3.48143 23.2186 2.7915 23.7639 2.43765C24.324 2.0698 25.1755 2.03713 25.9943 2.04553C26.3406 2.04553 26.6198 1.76545 26.6198 1.42C26.6198 1.07739 26.3406 0.79821 25.9943 0.79821C25.183 0.803655 24.0794 0.769432 23.0945 1.38174C22.0946 2.00913 21.4494 3.27699 21.4634 5.33934V6.94234H20.1797C19.8343 6.94234 19.5542 7.22335 19.5542 7.566C19.5542 7.91052 19.8343 8.19153 20.1797 8.19153H21.4634V17.5398C21.4634 17.8806 21.7435 18.1616 22.0871 18.1616C22.4325 18.1616 22.7117 17.8806 22.7117 17.5398C22.7108 11.5619 22.7089 11.1492 22.7089 8.19153H25.9943C26.3388 8.19153 26.6217 7.91052 26.6217 7.566C26.6217 7.22335 26.3388 6.94234 25.9943 6.94234Z" fill="#FAFBFC"/>
<path id="Vector_2" d="M40.6871 16.9175V16.9137C39.6368 16.923 38.7881 16.8605 38.3073 16.5001C37.8312 16.1583 37.4073 15.418 37.4017 13.5312V8.20771H40.6871C41.0316 8.20771 41.3108 7.92853 41.3108 7.58405C41.3108 7.23767 41.0316 6.96039 40.6871 6.96039H37.4017V1.42218C37.4017 1.07767 37.1226 0.798523 36.7762 0.798523C36.4326 0.798523 36.1553 1.07767 36.1553 1.42218V6.96039H34.8716C34.5271 6.96039 34.2461 7.23767 34.2461 7.58405C34.2461 7.92853 34.5271 8.20771 34.8716 8.20771H36.1553V13.5312C36.1479 15.5646 36.6296 16.8259 37.581 17.514C38.5277 18.174 39.6368 18.1554 40.6871 18.161C41.0316 18.161 41.3108 17.8856 41.3108 17.5392C41.3108 17.1947 41.0316 16.9175 40.6871 16.9175Z" fill="#FAFBFC"/>
<path id="Vector_3" d="M69.3726 16.9193C68.0263 16.9287 67.2029 16.7793 66.8024 16.4124C66.3916 16.0735 66.0825 15.2892 66.0872 13.5621V8.20962H69.3726C69.719 8.20962 69.9963 7.93048 69.9963 7.586C69.9963 7.23961 69.719 6.96234 69.3726 6.96234H66.0872V1.42227C66.0872 1.07588 65.809 0.802338 65.4636 0.802338C65.1181 0.802338 64.839 1.07588 64.839 1.42227V6.96234H63.5562C63.2098 6.96234 62.9307 7.23961 62.9307 7.586C62.9307 7.93048 63.2098 8.20962 63.5562 8.20962H64.839V13.5621C64.8429 15.3854 65.1265 16.5897 65.9883 17.3534C66.863 18.0919 67.9899 18.1573 69.3726 18.1629C69.7152 18.1629 69.9963 17.8875 69.9963 17.543C69.9963 17.1985 69.7152 16.9212 69.3726 16.9212" fill="#FAFBFC"/>
<path id="Vector_4" d="M29.7749 17.5393V7.56647C29.7749 7.22289 30.0569 6.94188 30.3986 6.94188C30.744 6.94188 31.0241 7.22289 31.0241 7.56647V17.5393C31.0241 17.8801 30.744 18.1611 30.3986 18.1611C30.0569 18.1611 29.7749 17.8801 29.7749 17.5393Z" fill="#FAFBFC"/>
<path id="Vector_5" d="M58.7285 17.5393V7.56646C58.7285 7.22288 59.0039 6.94186 59.3466 6.94186C59.6911 6.94186 59.9721 7.22288 59.9721 7.56646V17.5393C59.9721 17.8801 59.6911 18.1611 59.3466 18.1611C59.0039 18.1611 58.7285 17.8801 58.7285 17.5393Z" fill="#FAFBFC"/>
<path id="Vector_6" d="M50.0841 16.9413C47.6549 16.9358 45.6905 14.9751 45.6859 12.5458C45.6905 10.1175 47.6549 8.15316 50.0841 8.15129C52.5134 8.15129 54.4758 10.1175 54.4815 12.5458C54.4759 14.9751 52.5134 16.9357 50.0841 16.9413ZM50.0841 6.90211C48.3065 6.90211 46.7203 7.72651 45.6859 9.0121V1.42274C45.6859 1.07729 45.4077 0.800011 45.0641 0.800011C44.7168 0.800011 44.4404 1.07729 44.4404 1.42274V12.9221C44.4404 12.9659 44.4563 13.0061 44.4656 13.0481C44.7168 15.9274 47.1339 18.1886 50.0841 18.1886C53.2005 18.1886 55.7269 15.6631 55.7269 12.5458C55.7269 9.42942 53.2005 6.90397 50.0841 6.90211Z" fill="#FAFBFC"/>
<path id="Vector_7" d="M7.96298 9.63466C7.96298 10.191 7.51197 10.642 6.95561 10.642C6.39926 10.642 5.94824 10.191 5.94824 9.63466C5.94824 9.07831 6.39926 8.6273 6.95561 8.6273C7.51197 8.6273 7.96298 9.07831 7.96298 9.63466Z" fill="#FAFBFC"/>
<path id="Vector_8" d="M10.9366 9.63469C10.9366 10.191 10.4856 10.642 9.92925 10.642C9.37289 10.642 8.92188 10.191 8.92188 9.63469C8.92188 9.07834 9.37289 8.62733 9.92925 8.62733C10.4856 8.62733 10.9366 9.07834 10.9366 9.63469Z" fill="#FAFBFC"/>
<path id="Vector_9" d="M13.9112 9.63466C13.9112 10.191 13.4602 10.642 12.9039 10.642C12.3475 10.642 11.8965 10.191 11.8965 9.63466C11.8965 9.07831 12.3475 8.6273 12.9039 8.6273C13.4602 8.6273 13.9112 9.07831 13.9112 9.63466Z" fill="#FAFBFC"/>
<path id="Vector_10" d="M4.98837 9.63466C4.98837 10.191 4.53736 10.642 3.981 10.642C3.42465 10.642 2.97363 10.191 2.97363 9.63466C2.97363 9.07831 3.42465 8.6273 3.981 8.6273C4.53736 8.6273 4.98837 9.07831 4.98837 9.63466Z" fill="#FAFBFC"/>
<path id="Vector_11" d="M7.96298 15.5852C7.96298 16.1415 7.51197 16.5926 6.95561 16.5926C6.39926 16.5926 5.94824 16.1415 5.94824 15.5852C5.94824 15.0289 6.39926 14.5778 6.95561 14.5778C7.51197 14.5778 7.96298 15.0289 7.96298 15.5852Z" fill="#FAFBFC"/>
<path id="Vector_12" d="M7.96298 3.68797C7.96298 4.24432 7.51197 4.69533 6.95561 4.69533C6.39926 4.69533 5.94824 4.24432 5.94824 3.68797C5.94824 3.13162 6.39926 2.68061 6.95561 2.68061C7.51197 2.68061 7.96298 3.13162 7.96298 3.68797Z" fill="#FAFBFC"/>
<path id="Vector_13" d="M7.96298 12.7296C7.96298 13.2859 7.51197 13.7369 6.95561 13.7369C6.39926 13.7369 5.94824 13.2859 5.94824 12.7296C5.94824 12.1732 6.39926 11.7222 6.95561 11.7222C7.51197 11.7222 7.96298 12.1732 7.96298 12.7296Z" fill="#FAFBFC"/>
<path id="Vector_14" d="M10.9366 12.7296C10.9366 13.2859 10.4856 13.7369 9.92925 13.7369C9.37289 13.7369 8.92188 13.2859 8.92188 12.7296C8.92188 12.1732 9.37289 11.7222 9.92925 11.7222C10.4856 11.7222 10.9366 12.1732 10.9366 12.7296Z" fill="#FAFBFC"/>
<path id="Vector_15" d="M4.98837 12.7296C4.98837 13.2859 4.53736 13.7369 3.981 13.7369C3.42465 13.7369 2.97363 13.2859 2.97363 12.7296C2.97363 12.1732 3.42465 11.7222 3.981 11.7222C4.53736 11.7222 4.98837 12.1732 4.98837 12.7296Z" fill="#FAFBFC"/>
<path id="Vector_16" d="M7.96298 6.4991C7.96298 7.05545 7.51197 7.50646 6.95561 7.50646C6.39926 7.50646 5.94824 7.05545 5.94824 6.4991C5.94824 5.94275 6.39926 5.49174 6.95561 5.49174C7.51197 5.49174 7.96298 5.94275 7.96298 6.4991Z" fill="#FAFBFC"/>
<path id="Vector_17" d="M10.9366 6.49911C10.9366 7.05546 10.4856 7.50647 9.92925 7.50647C9.37289 7.50647 8.92188 7.05546 8.92188 6.49911C8.92188 5.94276 9.37289 5.49175 9.92925 5.49175C10.4856 5.49175 10.9366 5.94276 10.9366 6.49911Z" fill="#FAFBFC"/>
<path id="Vector_18" d="M4.98837 6.4991C4.98837 7.05545 4.53736 7.50646 3.981 7.50646C3.42465 7.50646 2.97363 7.05545 2.97363 6.4991C2.97363 5.94275 3.42465 5.49174 3.981 5.49174C4.53736 5.49174 4.98837 5.94275 4.98837 6.4991Z" fill="#FAFBFC"/>
<path id="Vector_19" d="M2.01767 9.63466C2.01767 10.191 1.56666 10.642 1.0103 10.642C0.453945 10.642 0.00292969 10.191 0.00292969 9.63466C0.00292969 9.07831 0.453945 8.6273 1.0103 8.6273C1.56666 8.6273 2.01767 9.07831 2.01767 9.63466Z" fill="#FAFBFC"/>
<path id="Vector_20" d="M31.6465 3.55255C31.6465 4.24116 31.0883 4.79938 30.3997 4.79938C29.7111 4.79938 29.1528 4.24116 29.1528 3.55255C29.1528 2.86395 29.7111 2.30573 30.3997 2.30573C31.0883 2.30573 31.6465 2.86395 31.6465 3.55255Z" fill="#FAFBFC"/>
<path id="Vector_21" d="M60.5967 3.55256C60.5967 4.24116 60.0385 4.79939 59.3499 4.79939C58.6613 4.79939 58.103 4.24116 58.103 3.55256C58.103 2.86396 58.6613 2.30573 59.3499 2.30573C60.0385 2.30573 60.5967 2.86396 60.5967 3.55256Z" fill="#FAFBFC"/>
</g>
<defs>
<clipPath id="clip0_1047_4310">
<rect width="70" height="17.5" fill="white" transform="translate(0 0.736069)"/>
</clipPath>
</defs>
</svg>
