<svg width="21" height="20" viewBox="0 0 21 20" fill="none" xmlns="http://www.w3.org/2000/svg">
<g id="Group">
<g id="Group_2">
<g id="Group_3">
<path id="Vector" d="M19.8639 10.6854C19.1917 11.3575 18.0918 11.3575 17.4141 10.6798C17.1696 10.4354 17.0141 10.1409 16.9474 9.82986C16.8974 9.59099 16.8919 9.33545 16.9474 9.09102C17.0086 8.77993 17.1696 8.47995 17.4141 8.24108C18.0918 7.56335 19.1917 7.56335 19.8639 8.23552C20.5416 8.9077 20.5416 10.0021 19.8639 10.6854Z" fill="#C0C5D2"/>
</g>
<g id="Group_4">
<path id="Vector_2" d="M12.4366 11.2853C11.52 12.2019 10.0757 12.2908 9.07021 11.5409C8.96466 11.4686 8.87022 11.3853 8.78134 11.2964C8.6869 11.202 8.59247 11.0964 8.52581 10.9909C7.77586 9.97985 7.85919 8.55773 8.77579 7.63557C9.17576 7.2356 9.68128 6.99117 10.209 6.9134C10.4646 6.86896 10.7257 6.86896 10.9923 6.9134C11.52 6.99117 12.0256 7.23004 12.4311 7.64112C12.8366 8.04665 13.0755 8.54662 13.1533 9.07436C13.1977 9.32989 13.1977 9.6021 13.1533 9.85764C13.081 10.3743 12.8422 10.8798 12.4366 11.2853Z" fill="#C0C5D2"/>
</g>
<g id="Group_5">
<path id="Vector_3" d="M16.5419 9.86877H13.5588C13.6032 9.60212 13.6032 9.31325 13.5588 9.0466H16.5419C16.4752 9.3188 16.4863 9.60212 16.5419 9.86877Z" fill="#C0C5D2"/>
</g>
<g id="Group_6">
<path id="Vector_4" d="M8.80358 11.8409L6.99259 13.6518C6.85371 13.4074 6.65373 13.213 6.41486 13.0741L8.2314 11.2576C8.30361 11.3742 8.39805 11.4853 8.49804 11.5798C8.59248 11.6742 8.69248 11.7631 8.80358 11.8409Z" fill="#C0C5D2"/>
</g>
<g id="Group_7">
<path id="Vector_5" d="M11.8256 2.95813C11.5867 3.197 11.2867 3.3581 10.9756 3.42476C10.7312 3.48031 10.4812 3.48031 10.2368 3.42476C9.92572 3.36365 9.62574 3.20255 9.38687 2.95813C8.70914 2.2804 8.70913 1.18047 9.38131 0.508298C10.059 -0.169433 11.159 -0.169433 11.8367 0.508298C12.5033 1.18047 12.5089 2.2804 11.8256 2.95813Z" fill="#C0C5D2"/>
</g>
<g id="Group_8">
<path id="Vector_6" d="M11.0201 6.50788C10.7423 6.46344 10.4646 6.46344 10.1979 6.50788V3.83029C10.4701 3.8914 10.7479 3.8914 11.0201 3.83029V6.50788Z" fill="#C0C5D2"/>
</g>
<g id="Group_9">
<g id="Group_10">
<path id="Vector_7" d="M6.38704 12.0908C7.22587 12.0908 7.90916 12.7685 7.90916 13.6129C7.90916 14.3296 7.41475 14.9295 6.75924 15.0906C6.64258 15.1295 6.52037 15.1406 6.38704 15.1406C6.26483 15.1406 6.13151 15.1239 6.02596 15.0906C5.87041 15.0573 5.73709 15.0073 5.60932 14.924C5.39267 14.8017 5.2149 14.624 5.09269 14.4073C5.00936 14.2851 4.94825 14.1351 4.90937 13.9851C4.87603 13.8685 4.87048 13.7463 4.87048 13.624C4.87604 13.4963 4.88715 13.3685 4.92048 13.2518C5.07602 12.5797 5.67042 12.0908 6.38704 12.0908Z" fill="#C0C5D2"/>
</g>
<g id="Group_11">
<path id="Vector_8" d="M0.315272 12.8574C0.73191 12.4408 1.40408 12.4408 1.82072 12.8574C1.93738 12.9741 2.02071 13.1074 2.07071 13.2407C2.15959 13.4852 2.15959 13.7463 2.07071 13.9796C2.02071 14.124 1.94294 14.2573 1.82628 14.3684C1.40964 14.7851 0.731904 14.7906 0.309712 14.3684C-0.106926 13.9574 -0.101365 13.2741 0.315272 12.8574Z" fill="#C0C5D2"/>
</g>
<g id="Group_12">
<path id="Vector_9" d="M2.33734 13.1963H5.2538C5.21492 13.3296 5.2038 13.4685 5.19825 13.6129C5.19825 13.7518 5.20936 13.8907 5.24269 14.0185H2.33734C2.43733 13.7629 2.43733 13.474 2.33734 13.1963Z" fill="#C0C5D2"/>
</g>
<g id="Group_13">
<path id="Vector_10" d="M5.63157 18.1737C5.74822 18.0571 5.87599 17.9793 6.02043 17.9293C6.25374 17.8404 6.51484 17.8404 6.75926 17.9293C6.89259 17.9793 7.03147 18.0626 7.14257 18.1793C7.55921 18.5959 7.55921 19.2681 7.14257 19.6847C6.72593 20.1014 6.0482 20.1069 5.63157 19.6903C5.21493 19.2681 5.22048 18.5903 5.63157 18.1737Z" fill="#C0C5D2"/>
</g>
<g id="Group_14">
<path id="Vector_11" d="M5.98157 15.4184C6.10378 15.4572 6.24821 15.4739 6.38709 15.4739C6.53708 15.4739 6.67041 15.4573 6.80373 15.4128V17.6738C6.53153 17.5738 6.24266 17.5738 5.98157 17.6738V15.4184Z" fill="#C0C5D2"/>
</g>
</g>
</g>
</g>
</svg>
