<svg width="20" height="20" viewBox="0 0 20 20" fill="none" xmlns="http://www.w3.org/2000/svg">
<path id="Vector" d="M4.37603 3.75166H9.3772V5.00195H4.37603V3.75166ZM4.37603 14.3792H6.87661V13.1289H4.37603V14.3792ZM4.37603 8.12769H10.0023V7.50254V6.87739H4.37603V8.12769ZM4.37603 11.2534H7.50176V10.0031H4.37603V11.2534ZM10.0023 18.13V18.7552V19.3803H1.87544C0.843948 19.3803 0 18.5364 0 17.5049V3.75166C0 2.72017 0.843948 1.87622 1.87544 1.87622V1.25107C1.87544 0.563414 2.43807 0.000782013 3.12573 0.000782013H11.3589C11.6902 0.000782013 12.0091 0.132065 12.2404 0.369621L16.5101 4.63937C16.7477 4.87693 16.879 5.1895 16.879 5.52083V7.50254H15.6287V6.25225H12.5029C11.4714 6.25225 10.6275 5.4083 10.6275 4.37681V1.25107H3.12573V16.2546H8.12691V17.5049H3.12573C2.43807 17.5049 1.87544 16.9423 1.87544 16.2546V3.12651C1.53161 3.12651 1.25029 3.40783 1.25029 3.75166V17.5049C1.25029 17.8487 1.53161 18.13 1.87544 18.13H10.0023ZM11.8778 1.76995V4.37681C11.8778 4.72064 12.1591 5.00195 12.5029 5.00195H15.1098L11.8778 1.76995ZM11.2526 13.1289C11.2526 12.0974 12.0966 11.2534 13.1281 11.2534C13.4719 11.2534 13.7532 10.9721 13.7532 10.6283C13.7532 10.2844 13.4719 10.0031 13.1281 10.0031C11.4027 10.0031 10.0023 11.4035 10.0023 13.1289C10.0023 13.4727 10.2837 13.754 10.6275 13.754C10.9713 13.754 11.2526 13.4727 11.2526 13.1289ZM19.8171 18.9365C20.061 19.1803 20.061 19.5741 19.8171 19.8179C19.6921 19.943 19.5358 19.9992 19.3733 19.9992C19.2107 19.9992 19.0545 19.9367 18.9294 19.8179L16.1788 17.0673C15.3286 17.7237 14.2721 18.1238 13.1156 18.1238C10.3587 18.1238 8.1144 15.8795 8.1144 13.1226C8.1144 10.3657 10.3587 8.12144 13.1156 8.12144C15.8725 8.12144 18.1167 10.3657 18.1167 13.1226C18.1167 14.2791 17.7229 15.3356 17.0602 16.1858L19.8171 18.9365ZM16.879 13.1289C16.879 11.0596 15.1973 9.37798 13.1281 9.37798C11.0588 9.37798 9.3772 11.0596 9.3772 13.1289C9.3772 15.1981 11.0588 16.8797 13.1281 16.8797C15.1973 16.8797 16.879 15.1981 16.879 13.1289Z" fill="#C0C5D2"/>
</svg>
