<svg width="18" height="22" viewBox="0 0 18 22" fill="none" xmlns="http://www.w3.org/2000/svg">
<g id="Group 35784">
<path id="Vector" d="M16.1965 11.8173H10.4311V21.5296H16.1965C16.6187 21.5296 16.9586 21.1875 16.9586 20.7675V12.5794C16.9586 12.1594 16.6166 11.8173 16.1965 11.8173Z" fill="#C0C5D2"/>
<path id="Vector_2" d="M1.04138 12.5794V20.7675C1.04138 21.1897 1.38345 21.5296 1.80347 21.5296H7.56892V11.8173H1.80347C1.38345 11.8173 1.04138 12.1594 1.04138 12.5794Z" fill="#C0C5D2"/>
<path id="Vector_3" d="M0 7.74921V10.1394C0 10.5616 0.342074 10.9015 0.762089 10.9015H7.57108L7.57325 6.98495H0.762089C0.342074 6.98495 0 7.32703 0 7.74921Z" fill="#C0C5D2"/>
<path id="Vector_4" d="M17.2379 6.98495H10.4138L10.4289 10.9015H17.2379C17.6601 10.9015 18 10.5594 18 10.1394V7.74921C18.0022 7.32703 17.6601 6.98495 17.2379 6.98495Z" fill="#C0C5D2"/>
<path id="Vector_5" d="M3.16307 6.12545C3.25183 6.17524 3.39039 6.25535 3.79742 6.25535C5.59872 6.25535 13.6158 6.25535 14.1008 6.25535C14.5468 6.25535 14.7243 6.17091 14.8195 6.11462C15.5015 5.71193 15.9302 4.86757 15.9302 3.78939C15.9302 2.98833 15.6769 2.18944 15.2352 1.59839C14.694 0.870942 13.8908 0.470413 12.9728 0.470413C12.897 0.470413 12.8212 0.472577 12.7433 0.479072C10.338 0.645779 9.36153 2.92771 8.98048 4.39993C8.59944 2.92988 7.62301 0.645779 5.21767 0.479072C5.13973 0.474742 5.06396 0.470413 4.98818 0.470413C4.07238 0.470413 3.26915 0.870942 2.72573 1.59839C2.28407 2.18944 2.03076 2.98833 2.03076 3.78939C2.03293 4.87623 2.47026 5.72709 3.16307 6.12545ZM12.8386 1.84737C12.884 1.8452 12.9295 1.84304 12.9749 1.84304C13.4599 1.84304 13.8518 2.03572 14.1354 2.41893C14.4039 2.77833 14.5576 3.27845 14.5576 3.78939C14.5576 4.20941 14.4125 5.0018 13.8604 5.0018H10.2513C10.4982 3.89981 11.1693 1.96211 12.8386 1.84737ZM3.82773 2.41677C4.11135 2.03572 4.50322 1.84087 4.98818 1.84087C5.03148 1.84087 5.07695 1.84304 5.12458 1.8452C6.79381 1.95995 7.46497 3.89764 7.71394 4.99964H4.10485C3.55277 4.99964 3.40772 4.20507 3.40772 3.78723C3.40555 3.27628 3.55927 2.77616 3.82773 2.41677Z" fill="#C0C5D2"/>
</g>
</svg>
