<svg width="24" height="23" viewBox="0 0 24 23" fill="none" xmlns="http://www.w3.org/2000/svg">
<g id="vuesax/bulk/setting-2">
<g id="setting-2">
<path id="Vector" opacity="0.4" d="M2.3623 12.3073V10.6493C2.3623 9.66957 3.16303 8.85943 4.15216 8.85943C5.85723 8.85943 6.55433 7.65363 5.69709 6.17464C5.20723 5.32682 5.49926 4.22464 6.35651 3.73479L7.98622 2.80218C8.73042 2.35943 9.69129 2.62319 10.134 3.3674L10.2377 3.54638C11.0855 5.02537 12.4797 5.02537 13.3369 3.54638L13.4406 3.3674C13.8833 2.62319 14.8442 2.35943 15.5884 2.80218L17.2181 3.73479C18.0753 4.22464 18.3674 5.32682 17.8775 6.17464C17.0203 7.65363 17.7174 8.85943 19.4224 8.85943C20.4022 8.85943 21.2123 9.66015 21.2123 10.6493V12.3073C21.2123 13.287 20.4116 14.0971 19.4224 14.0971C17.7174 14.0971 17.0203 15.3029 17.8775 16.7819C18.3674 17.6391 18.0753 18.7319 17.2181 19.2217L15.5884 20.1544C14.8442 20.5971 13.8833 20.3333 13.4406 19.5891L13.3369 19.4102C12.4891 17.9312 11.0949 17.9312 10.2377 19.4102L10.134 19.5891C9.69129 20.3333 8.73042 20.5971 7.98622 20.1544L6.35651 19.2217C5.49926 18.7319 5.20723 17.6297 5.69709 16.7819C6.55433 15.3029 5.85723 14.0971 4.15216 14.0971C3.16303 14.0971 2.3623 13.287 2.3623 12.3073Z" fill="#FAFBFC"/>
<path id="Vector_2" d="M11.7823 14.5399C13.4732 14.5399 14.8439 13.1691 14.8439 11.4783C14.8439 9.78739 13.4732 8.41667 11.7823 8.41667C10.0914 8.41667 8.7207 9.78739 8.7207 11.4783C8.7207 13.1691 10.0914 14.5399 11.7823 14.5399Z" fill="#FAFBFC"/>
</g>
</g>
</svg>
