<svg width="24" height="24" viewBox="0 0 24 24" fill="none" xmlns="http://www.w3.org/2000/svg">
<g id="Group">
<g id="Group_2">
<path id="Path" d="M13.6008 7.59816V2.99625" stroke="#FAFBFC" stroke-width="1.5" stroke-linecap="round" stroke-linejoin="round"/>
<path id="Path_2" d="M10.3995 2.99625V7.59816C10.3995 8.92372 9.32409 9.99916 7.99854 9.99916V9.99916" stroke="#FAFBFC" stroke-width="1.5" stroke-linecap="round" stroke-linejoin="round"/>
<path id="Path_3" d="M16.0021 9.99916C14.6765 9.99916 13.6011 8.92371 13.6011 7.59816" stroke="#FAFBFC" stroke-width="1.5" stroke-linecap="round" stroke-linejoin="round"/>
<path id="Path_4" d="M16.0022 13.0004C14.4075 13.0004 12.9889 12.2971 12.0005 11.1977" stroke="#FAFBFC" stroke-width="1.5" stroke-linecap="round" stroke-linejoin="round"/>
<path id="Path_5" d="M7.99854 13.0004C9.5932 13.0004 11.0118 12.2971 12.0002 11.1977" stroke="#FAFBFC" stroke-width="1.5" stroke-linecap="round" stroke-linejoin="round"/>
<path id="Path_6" d="M13.501 15.9977V17.3662C13.501 18.5027 14.1432 19.5411 15.1597 20.0493L16.2131 20.5756C18.8742 21.9061 22.0045 19.9723 22.0045 16.9981V10.8505C22.0045 9.94213 21.6954 9.06076 21.1272 8.35147L19.3454 6.12554C18.457 5.01408 17.1175 4.77998 16.002 5.17815" stroke="#FAFBFC" stroke-width="1.5" stroke-linecap="round" stroke-linejoin="round"/>
<path id="Path_7" d="M10.4996 15.9977V17.3662C10.4996 18.5027 9.85737 19.5411 8.84094 20.0493L7.78751 20.5756C5.1264 21.9061 1.99609 19.9723 1.99609 16.9981V10.8505C1.99609 9.94213 2.30522 9.06076 2.87346 8.35147L4.6552 6.12554C5.54357 5.01408 6.88313 4.77998 7.99859 5.17815" stroke="#FAFBFC" stroke-width="1.5" stroke-linecap="round" stroke-linejoin="round"/>
</g>
</g>
</svg>
