<svg width="20" height="22" viewBox="0 0 20 22" fill="none" xmlns="http://www.w3.org/2000/svg">
<path id="Vector" fill-rule="evenodd" clip-rule="evenodd" d="M16.284 3.95735C22.9824 9.3585 20.0974 20.0234 11.8445 21.568L10.4334 11.8255L16.284 3.95735ZM9.34609 0.31668C11.6384 0.0713515 14.0191 0.613036 16.0543 2.0065L10.6591 9.2584L9.34609 0.31668ZM0.219876 13.8215C-0.357136 11.1092 0.192402 8.17111 1.97643 5.77082C3.53868 3.67081 5.76822 2.35977 8.15281 1.91229L9.55609 11.4605L0.219876 13.8215ZM11.0575 21.6838C8.64543 21.9409 6.13327 21.3266 4.0313 19.7643C2.22961 18.4239 1.00689 16.5908 0.41418 14.5909L9.67188 12.2494L11.0575 21.6838Z" fill="#C0C5D2"/>
</svg>
