<svg width="16" height="16" viewBox="0 0 16 16" fill="none" xmlns="http://www.w3.org/2000/svg">
<g id="vuesax/outline/export">
<g id="export">
<path id="Vector" d="M9.24252 4.54587C9.1232 4.54587 9.00387 4.50191 8.90967 4.4077L7.63479 3.13283L6.35991 4.4077C6.17779 4.58983 5.87634 4.58983 5.69421 4.4077C5.51209 4.22558 5.51209 3.92413 5.69421 3.742L7.30194 2.13427C7.48407 1.95215 7.78552 1.95215 7.96764 2.13427L9.57537 3.742C9.7575 3.92413 9.7575 4.22558 9.57537 4.4077C9.48117 4.50191 9.36184 4.54587 9.24252 4.54587Z" fill="white"/>
<path id="Vector_2" d="M7.63459 9.36909C7.3771 9.36909 7.16357 9.15556 7.16357 8.89807V2.51111C7.16357 2.25363 7.3771 2.0401 7.63459 2.0401C7.89208 2.0401 8.1056 2.25363 8.1056 2.51111V8.89807C8.1056 9.16184 7.89208 9.36909 7.63459 9.36909Z" fill="white"/>
<path id="Vector_3" d="M7.71001 13.0241C4.47571 13.0241 2.21484 10.7633 2.21484 7.52897C2.21484 7.27148 2.42837 7.05795 2.68586 7.05795C2.94335 7.05795 3.15687 7.27148 3.15687 7.52897C3.15687 10.2106 5.02837 12.0821 7.71001 12.0821C10.3917 12.0821 12.2632 10.2106 12.2632 7.52897C12.2632 7.27148 12.4767 7.05795 12.7342 7.05795C12.9917 7.05795 13.2052 7.27148 13.2052 7.52897C13.2052 10.7633 10.9443 13.0241 7.71001 13.0241Z" fill="white"/>
</g>
</g>
</svg>
